<svg xmlns="http://www.w3.org/2000/svg" xmlns:xlink="http://www.w3.org/1999/xlink" width="1366" zoomAndPan="magnify" viewBox="0 0 1024.5 576" height="768" preserveAspectRatio="xMidYMid meet" version="1.0"><defs><clipPath id="104f23bb69"><path d="M 0 0.140625 L 1024 0.140625 L 1024 575.859375 L 0 575.859375 Z M 0 0.140625 " clip-rule="nonzero"/></clipPath><clipPath id="35d2ffc591"><path d="M 187 141 L 864 141 L 864 398 L 187 398 Z M 187 141 " clip-rule="nonzero"/></clipPath><clipPath id="c347c0934c"><path d="M 577.265625 666.121094 L 156.871094 281.195312 L 528.121094 -124.265625 L 948.515625 260.660156 Z M 577.265625 666.121094 " clip-rule="nonzero"/></clipPath><clipPath id="c92640a206"><path d="M 577.265625 666.121094 L 156.871094 281.195312 L 528.121094 -124.265625 L 948.515625 260.660156 Z M 577.265625 666.121094 " clip-rule="nonzero"/></clipPath><clipPath id="59e34033fa"><path d="M 577.265625 666.121094 L 156.871094 281.195312 L 528.121094 -124.265625 L 948.515625 260.660156 Z M 577.265625 666.121094 " clip-rule="nonzero"/></clipPath><clipPath id="8864d225b5"><path d="M 782 145 L 860 145 L 860 395 L 782 395 Z M 782 145 " clip-rule="nonzero"/></clipPath><clipPath id="f0c5dec237"><path d="M 577.265625 666.121094 L 156.871094 281.195312 L 528.121094 -124.265625 L 948.515625 260.660156 Z M 577.265625 666.121094 " clip-rule="nonzero"/></clipPath><clipPath id="cee55316cc"><path d="M 577.265625 666.121094 L 156.871094 281.195312 L 528.121094 -124.265625 L 948.515625 260.660156 Z M 577.265625 666.121094 " clip-rule="nonzero"/></clipPath><clipPath id="72a9617a3f"><path d="M 577.265625 666.121094 L 156.871094 281.195312 L 528.121094 -124.265625 L 948.515625 260.660156 Z M 577.265625 666.121094 " clip-rule="nonzero"/></clipPath><clipPath id="3a7c1fe647"><path d="M 474 145 L 817 145 L 817 395 L 474 395 Z M 474 145 " clip-rule="nonzero"/></clipPath><clipPath id="73fe388988"><path d="M 577.265625 666.121094 L 156.871094 281.195312 L 528.121094 -124.265625 L 948.515625 260.660156 Z M 577.265625 666.121094 " clip-rule="nonzero"/></clipPath><clipPath id="38769d33aa"><path d="M 577.265625 666.121094 L 156.871094 281.195312 L 528.121094 -124.265625 L 948.515625 260.660156 Z M 577.265625 666.121094 " clip-rule="nonzero"/></clipPath><clipPath id="22427ae906"><path d="M 577.265625 666.121094 L 156.871094 281.195312 L 528.121094 -124.265625 L 948.515625 260.660156 Z M 577.265625 666.121094 " clip-rule="nonzero"/></clipPath><clipPath id="6a3df2bc75"><path d="M 191 198 L 487 198 L 487 348 L 191 348 Z M 191 198 " clip-rule="nonzero"/></clipPath><clipPath id="63a7db973f"><path d="M 577.265625 666.121094 L 156.871094 281.195312 L 528.121094 -124.265625 L 948.515625 260.660156 Z M 577.265625 666.121094 " clip-rule="nonzero"/></clipPath><clipPath id="ce98f333a6"><path d="M 577.265625 666.121094 L 156.871094 281.195312 L 528.121094 -124.265625 L 948.515625 260.660156 Z M 577.265625 666.121094 " clip-rule="nonzero"/></clipPath><clipPath id="2f9fb6290f"><path d="M 577.265625 666.121094 L 156.871094 281.195312 L 528.121094 -124.265625 L 948.515625 260.660156 Z M 577.265625 666.121094 " clip-rule="nonzero"/></clipPath><clipPath id="725c3babbb"><path d="M 223 199 L 474 199 L 474 348 L 223 348 Z M 223 199 " clip-rule="nonzero"/></clipPath><clipPath id="d4cdcee720"><path d="M 577.265625 666.121094 L 156.871094 281.195312 L 528.121094 -124.265625 L 948.515625 260.660156 Z M 577.265625 666.121094 " clip-rule="nonzero"/></clipPath><clipPath id="a367ac257a"><path d="M 577.265625 666.121094 L 156.871094 281.195312 L 528.121094 -124.265625 L 948.515625 260.660156 Z M 577.265625 666.121094 " clip-rule="nonzero"/></clipPath><clipPath id="c99782d232"><path d="M 577.265625 666.121094 L 156.871094 281.195312 L 528.121094 -124.265625 L 948.515625 260.660156 Z M 577.265625 666.121094 " clip-rule="nonzero"/></clipPath></defs><g clip-path="url(#104f23bb69)"><path fill="#ffffff" d="M 0 0.140625 L 1024.5 0.140625 L 1024.5 576.140625 L 0 576.140625 Z M 0 0.140625 " fill-opacity="1" fill-rule="nonzero"/><path fill="#004d8f" d="M 0 0.140625 L 1024.5 0.140625 L 1024.5 576.140625 L 0 576.140625 Z M 0 0.140625 " fill-opacity="1" fill-rule="nonzero"/></g><g clip-path="url(#35d2ffc591)"><g clip-path="url(#c347c0934c)"><g clip-path="url(#c92640a206)"><g clip-path="url(#59e34033fa)"><path fill="#000000" d="M 202.378906 231.660156 C 204.90625 228.96875 207.90625 227.660156 211.597656 227.527344 C 261.796875 225.539062 311.976562 222.703125 362.234375 221.953125 C 364.066406 221.921875 365.882812 221.96875 367.652344 222.003906 C 369.28125 217.089844 372.28125 213.582031 375.117188 209.984375 C 377.347656 207.148438 380.128906 205.175781 383.679688 204.398438 C 388.960938 203.230469 394.257812 201.976562 399.585938 201.058594 C 419.378906 197.613281 439.339844 195.878906 459.421875 195.382812 C 463.765625 195.269531 467.511719 196.382812 470.308594 199.859375 C 472.078125 202.058594 474.210938 202.300781 476.878906 201.816406 C 550.90625 188.574219 624.9375 175.390625 698.984375 162.226562 C 734.433594 155.910156 769.921875 149.660156 805.371094 143.375 C 807.695312 142.972656 810.054688 142.691406 812.289062 142.023438 C 814.363281 141.390625 816.085938 141.808594 817.808594 142.894531 C 822.316406 145.773438 826.324219 149.261719 829.878906 153.246094 C 843.640625 168.683594 851.496094 187.074219 856.527344 206.8125 C 862.550781 230.507812 864.414062 254.605469 863.234375 278.996094 C 861.941406 305.542969 857.125 331.371094 847.570312 356.238281 C 843.832031 365.992188 839.453125 375.4375 833.660156 384.167969 C 830.941406 388.269531 828.074219 392.234375 824.050781 395.230469 C 822.0625 396.703125 820.035156 397.316406 817.46875 396.917969 C 788.644531 392.492188 759.8125 388.210938 731.007812 383.769531 C 646.285156 370.660156 561.59375 357.480469 476.902344 344.335938 C 476.503906 344.273438 476.070312 344.277344 475.699219 344.148438 C 473.699219 343.535156 472.15625 343.953125 471.0625 345.882812 C 470.515625 346.84375 469.675781 347.664062 468.898438 348.445312 C 467.039062 350.34375 464.886719 351.394531 462.097656 351.402344 C 443.859375 351.421875 425.699219 350.289062 407.609375 347.941406 C 401.632812 347.167969 395.714844 345.867188 389.722656 345.109375 C 382.355469 344.191406 377.054688 340.34375 373.109375 334.320312 C 371.605469 332.027344 370.226562 329.667969 368.628906 327.109375 C 368.230469 327.078125 367.542969 326.996094 366.824219 327.011719 C 318.824219 327.203125 270.84375 326.164062 222.867188 324.824219 C 219.089844 324.71875 215.289062 324.535156 211.523438 324.714844 C 205.625 324.992188 201.695312 321.847656 198.410156 317.53125 C 195.722656 314.003906 193.828125 310.039062 192.429688 305.832031 C 185.132812 283.867188 186.1875 262.347656 195.925781 241.308594 C 197.519531 237.703125 199.6875 234.5 202.378906 231.660156 Z M 202.378906 231.660156 " fill-opacity="1" fill-rule="nonzero"/></g></g></g></g><g clip-path="url(#8864d225b5)"><g clip-path="url(#f0c5dec237)"><g clip-path="url(#cee55316cc)"><g clip-path="url(#72a9617a3f)"><path fill="#ffed76" d="M 815.582031 145.558594 C 816.867188 146.15625 818.242188 147.320312 820.496094 149.261719 C 828.507812 156.140625 834.617188 164.570312 839.660156 173.765625 C 847.421875 187.890625 852.285156 203.046875 855.101562 218.839844 C 863.425781 265.355469 860.109375 310.945312 843.421875 355.304688 C 839.515625 365.671875 834.730469 375.597656 828.234375 384.628906 C 825.710938 388.113281 823.039062 391.464844 819.035156 393.441406 C 818.347656 393.789062 817.65625 394.011719 816.960938 394.105469 C 814.589844 392.027344 812.355469 389.765625 810.183594 387.472656 C 810.46875 387.460938 810.800781 387.398438 811.144531 387.253906 C 810.613281 386.402344 810.292969 385.652344 809.792969 385.101562 C 806.578125 381.609375 804.125 377.621094 801.992188 373.414062 C 796.058594 361.664062 791.890625 349.277344 789.203125 336.414062 C 779.875 291.964844 780.566406 247.574219 790.378906 203.320312 C 793.351562 189.90625 797.777344 176.9375 804.476562 164.855469 C 806.203125 161.738281 808.1875 158.734375 809.992188 155.664062 C 810.511719 154.765625 811.445312 153.878906 810.40625 152.410156 C 811.792969 149.898438 813.589844 147.667969 815.582031 145.558594 Z M 815.582031 145.558594 " fill-opacity="1" fill-rule="nonzero"/></g></g></g></g><g clip-path="url(#3a7c1fe647)"><g clip-path="url(#73fe388988)"><g clip-path="url(#38769d33aa)"><g clip-path="url(#22427ae906)"><path fill="#ffee89" d="M 475.542969 205.777344 C 476.707031 205.503906 477.667969 205.253906 478.664062 205.070312 C 587.992188 185.339844 697.335938 165.628906 806.648438 145.917969 C 806.945312 145.855469 807.261719 145.808594 807.546875 145.765625 C 811.894531 144.984375 813.648438 144.671875 815.550781 145.558594 C 813.558594 147.667969 811.746094 149.882812 810.359375 152.398438 C 810.273438 152.257812 810.15625 152.117188 810.019531 151.964844 C 809.109375 152.960938 808.300781 153.714844 807.652344 154.585938 C 803.144531 160.710938 799.617188 167.394531 796.695312 174.386719 C 789.21875 192.253906 785.113281 211.007812 782.675781 230.132812 C 778.289062 264.492188 778.898438 298.730469 785.695312 332.777344 C 788.621094 347.382812 792.929688 361.546875 800.042969 374.710938 C 802.160156 378.632812 805.011719 382.1875 807.59375 385.835938 C 808.171875 386.636719 808.863281 387.546875 810.152344 387.472656 C 812.308594 389.785156 814.558594 392.027344 816.929688 394.105469 C 816.375 394.179688 815.800781 394.171875 815.175781 394.089844 C 766.886719 386.390625 718.613281 378.675781 670.324219 371.039062 C 606.574219 360.992188 542.796875 351.007812 479.046875 340.992188 C 477.75 340.777344 476.464844 340.546875 474.714844 340.257812 C 480.246094 330.28125 483.921875 320.101562 486.125 309.460938 C 491.402344 284.03125 492.230469 258.523438 486.703125 232.992188 C 484.761719 224.042969 481.660156 215.53125 476.648438 207.769531 C 476.304688 207.210938 476.007812 206.601562 475.542969 205.777344 Z M 475.542969 205.777344 " fill-opacity="1" fill-rule="nonzero"/></g></g></g></g><g clip-path="url(#6a3df2bc75)"><g clip-path="url(#63a7db973f)"><g clip-path="url(#ce98f333a6)"><g clip-path="url(#2f9fb6290f)"><path fill="#4d4d4f" d="M 221.875 317.539062 C 219.953125 319.808594 217.714844 320.6875 214.769531 320.367188 C 213.28125 320.195312 211.683594 320.441406 210.21875 320.839844 C 208.410156 321.347656 207.09375 320.785156 205.722656 319.679688 C 202.039062 316.703125 199.574219 312.863281 197.761719 308.578125 C 192.230469 295.550781 190.640625 281.984375 192.332031 268.003906 C 193.542969 257.980469 196.191406 248.351562 201.441406 239.617188 C 202.4375 237.964844 203.660156 236.429688 204.914062 234.957031 C 206.902344 232.65625 209.070312 230.953125 212.5625 231.707031 C 214.605469 232.144531 216.851562 231.824219 218.976562 231.570312 C 220.988281 231.339844 222.25 232.128906 223.382812 233.65625 C 227.398438 239.039062 230.558594 244.890625 232.027344 251.453125 C 236.59375 271.863281 234.75 291.683594 226.003906 310.734375 C 224.902344 313.171875 223.257812 315.296875 221.875 317.539062 Z M 211.328125 316.761719 C 213.625 316.453125 214.1875 315.136719 214.816406 313.851562 C 218.375 306.496094 220.261719 298.671875 221.417969 290.640625 C 223.449219 276.484375 222.71875 262.453125 218.542969 248.746094 C 217.535156 245.445312 215.867188 242.363281 214.4375 239.191406 C 213.980469 238.191406 213.410156 237.214844 211.753906 237.222656 C 211.992188 237.929688 212.113281 238.464844 212.324219 238.964844 C 213.777344 242.214844 215.476562 245.390625 216.628906 248.734375 C 218.800781 254.960938 219.648438 261.472656 220.113281 268 C 221.261719 283.878906 219.152344 299.214844 212.355469 313.738281 C 212.011719 314.578125 211.796875 315.449219 211.328125 316.761719 Z M 463.851562 347.789062 C 465.425781 345.9375 467.015625 344.066406 468.574219 342.199219 C 469.027344 341.636719 469.363281 341.003906 469.75 340.410156 C 475.160156 331.636719 478.851562 322.140625 481.277344 312.160156 C 486.410156 291.082031 487.597656 269.714844 485.324219 248.199219 C 484.3125 238.734375 482.484375 229.402344 478.886719 220.496094 C 475.804688 212.824219 471.625 205.855469 465.453125 200.261719 C 464.738281 199.609375 463.796875 198.804688 462.933594 198.75 C 460.730469 198.652344 458.496094 198.925781 455.9375 199.085938 C 456.488281 199.984375 456.816406 200.59375 457.210938 201.164062 C 458.65625 203.253906 460.242188 205.285156 461.582031 207.457031 C 467.652344 217.226562 471.160156 228 473.296875 239.199219 C 477.410156 260.84375 477.144531 282.535156 473.371094 304.1875 C 471.792969 313.179688 469.460938 321.960938 465.671875 330.300781 C 462.8125 336.621094 459.628906 342.765625 453.558594 347.761719 C 457.382812 347.753906 460.613281 347.757812 463.851562 347.789062 Z M 337.660156 288.5625 C 337.164062 282.738281 336.96875 277.28125 338.195312 271.511719 C 346.671875 271.25 355.121094 270.992188 363.441406 270.738281 C 364.761719 274.632812 364.5625 279.148438 362.746094 287.796875 C 354.492188 288.046875 346.136719 288.300781 337.660156 288.5625 Z M 344.90625 273.046875 C 347.09375 275.023438 349.074219 273.996094 350.878906 274.09375 C 352.808594 274.183594 354.761719 274.082031 356.6875 273.980469 C 358.496094 273.871094 360.394531 274.296875 362.460938 273.410156 C 361.910156 272.910156 361.71875 272.550781 361.480469 272.546875 C 356.683594 272.484375 351.902344 272.441406 347.125 272.457031 C 346.566406 272.433594 346.023438 272.730469 344.90625 273.046875 Z M 341.566406 273.527344 C 339.9375 274.9375 338.988281 282.640625 339.578125 285.132812 C 339.65625 285.449219 340.144531 285.683594 340.625 286.121094 C 340.9375 281.679688 341.25 277.605469 341.566406 273.527344 Z M 349.175781 275.617188 C 347.59375 277.980469 347.542969 282.9375 348.890625 284.660156 C 350.160156 282.710938 350.347656 278.335938 349.175781 275.617188 Z M 360.769531 284.890625 C 362.304688 281.78125 362.257812 277.097656 360.796875 275.457031 C 359.730469 278.292969 359.640625 282.757812 360.769531 284.890625 Z M 356.761719 276.796875 C 355.863281 279.449219 355.519531 282.125 355.90625 285.167969 C 358.183594 283.285156 358.601562 279.425781 356.761719 276.796875 Z M 352.335938 285.101562 C 353.769531 282.902344 354.234375 279.394531 353.640625 276.777344 C 353.582031 276.539062 353.097656 276.402344 352.359375 275.90625 C 352.277344 279.128906 351.25 281.820312 352.335938 285.101562 Z M 344.15625 284.535156 C 345.832031 281.738281 345.945312 278.515625 344.386719 276.78125 C 343.75 279.34375 342.988281 281.878906 344.15625 284.535156 Z M 344.15625 284.535156 " fill-opacity="1" fill-rule="nonzero"/></g></g></g></g><g clip-path="url(#725c3babbb)"><g clip-path="url(#d4cdcee720)"><g clip-path="url(#a367ac257a)"><g clip-path="url(#c99782d232)"><path fill="#737577" d="M 223.277344 320.347656 C 237.488281 302.425781 239.480469 269.378906 234.707031 251.589844 C 232.800781 244.503906 229.882812 237.925781 225.011719 232.308594 C 224.914062 232.1875 224.933594 231.960938 224.867188 231.535156 C 225.867188 231.445312 226.832031 231.320312 227.820312 231.277344 C 274.023438 229.320312 320.226562 227.359375 366.417969 225.386719 C 370.503906 225.222656 374.585938 224.996094 378.644531 224.5625 C 380.40625 224.375 381.683594 224.8125 382.648438 226.125 C 384.5 228.671875 386.488281 231.164062 387.996094 233.917969 C 390.90625 239.144531 392.496094 244.871094 393.648438 250.714844 C 397.503906 270.476562 396.726562 289.992188 390.085938 309.109375 C 388.378906 314.042969 386.132812 318.761719 382.433594 322.601562 C 381.609375 323.464844 380.785156 323.867188 379.492188 323.847656 C 365.90625 323.515625 352.292969 323.285156 338.691406 323.003906 C 302.082031 322.183594 265.46875 321.367188 228.84375 320.53125 C 227.089844 320.484375 225.285156 320.417969 223.277344 320.347656 Z M 366.449219 269.222656 C 365.363281 268.808594 364.464844 268.320312 363.484375 268.125 C 362.277344 267.875 361.0625 267.800781 359.835938 267.742188 C 346.429688 267.214844 333.066406 267.945312 319.710938 268.863281 C 316.753906 269.054688 315.976562 269.773438 315.304688 272.640625 C 314.089844 277.933594 313.582031 283.324219 313.789062 288.761719 C 313.878906 291.5 314.449219 292.109375 317.378906 292.078125 C 330.75 291.90625 344.152344 291.671875 357.523438 291.402344 C 359.144531 291.363281 360.777344 291.148438 362.40625 290.871094 C 364.617188 290.488281 366.230469 289.128906 366.679688 287.003906 C 367.691406 282.199219 368.175781 277.300781 367.527344 272.375 C 367.367188 271.316406 366.8125 270.289062 366.449219 269.222656 Z M 372.941406 327 C 375.492188 327.015625 377.527344 326.925781 379.542969 327.09375 C 383.011719 327.402344 385.589844 325.921875 387.300781 323.152344 C 389.484375 319.601562 391.824219 316.011719 393.214844 312.125 C 401.625 288.773438 402.1875 265.125 395.128906 241.332031 C 393.402344 235.515625 390.683594 230.1875 386.839844 225.382812 C 384.410156 222.367188 381.613281 221.027344 377.792969 221.464844 C 376.015625 221.667969 374.179688 221.574219 371.984375 221.605469 C 374.402344 217.261719 376.882812 213.523438 380.273438 210.585938 C 381.804688 209.246094 384.03125 208.445312 386.050781 208.007812 C 393.042969 206.476562 400.050781 205.054688 407.105469 203.882812 C 421.636719 201.480469 436.355469 200.375 451.039062 199.238281 C 452.878906 199.09375 453.972656 199.699219 455.121094 201.144531 C 464.128906 212.441406 468.570312 225.660156 471.050781 239.554688 C 475.542969 264.75 474.792969 289.871094 468.4375 314.710938 C 466.417969 322.652344 463.441406 330.269531 459.164062 337.308594 C 457.027344 340.839844 454.457031 343.980469 451.195312 346.511719 C 450.546875 347.019531 449.558594 347.363281 448.761719 347.335938 C 429.140625 346.363281 409.597656 344.667969 390.242188 341.039062 C 384.539062 339.96875 380.1875 337.355469 377 332.605469 C 375.773438 330.875 374.488281 329.179688 372.941406 327 Z M 388.445312 213.496094 C 388.296875 213.722656 388.148438 213.953125 387.980469 214.167969 C 388.300781 214.550781 388.621094 214.9375 388.957031 215.304688 C 398.828125 225.65625 405.132812 237.742188 407.054688 252.039062 C 408.925781 265.832031 408.417969 279.585938 406.398438 293.292969 C 405.039062 302.511719 403.019531 311.585938 399.160156 320.132812 C 396.78125 325.367188 394.039062 330.363281 389.523438 334.128906 C 389.0625 334.496094 388.867188 335.175781 388.539062 335.699219 C 388.691406 335.898438 388.84375 336.101562 388.980469 336.285156 C 389.855469 335.929688 390.851562 335.742188 391.558594 335.167969 C 392.820312 334.15625 394.027344 333.007812 395.023438 331.71875 C 400.191406 325.074219 403.3125 317.433594 405.457031 309.390625 C 409.527344 294.175781 411.070312 278.65625 410.308594 262.921875 C 409.910156 254.625 408.59375 246.460938 405.867188 238.570312 C 402.832031 229.6875 397.5625 222.238281 391.210938 215.476562 C 390.457031 214.664062 389.382812 214.136719 388.445312 213.496094 Z M 334.25 288.550781 C 334.214844 282.753906 334.214844 277.355469 334.175781 271.734375 C 328.855469 272.140625 323.472656 272.554688 317.855469 272.992188 C 317.691406 278.269531 317.554688 283.148438 317.40625 288.382812 C 323.347656 288.425781 328.910156 288.484375 334.25 288.550781 Z M 334.25 288.550781 " fill-opacity="1" fill-rule="nonzero"/></g></g></g></g></svg>